<svg width="24" height="24" viewBox="0 0 24 24" fill="none" xmlns="http://www.w3.org/2000/svg">
<path d="M16.5057 7.06087C16.5057 6.70928 16.364 6.37134 16.1114 6.1219C15.8587 5.87254 15.5157 5.7318 15.1573 5.73174H6.08405C5.72567 5.7318 5.38267 5.87254 5.13003 6.1219C4.8774 6.37134 4.73563 6.70928 4.73563 7.06087V8.19063C4.73564 8.5422 4.87741 8.88017 5.13003 9.1296C5.38266 9.37889 5.72572 9.5197 6.08405 9.51976H15.1573C15.5157 9.5197 15.8587 9.37889 16.1114 9.1296C16.364 8.88017 16.5057 8.5422 16.5057 8.19063V7.06087ZM6.28879 12.1509V12.1452C6.28882 11.9431 6.45348 11.7793 6.65661 11.7793C6.85966 11.7794 7.0244 11.9432 7.02443 12.1452V12.1509C7.02441 12.3529 6.85967 12.5166 6.65661 12.5167C6.45348 12.5167 6.28881 12.3529 6.28879 12.1509ZM6.28879 7.63111V7.62539C6.28893 7.42344 6.45355 7.25952 6.65661 7.25952C6.85959 7.25961 7.02429 7.4235 7.02443 7.62539V7.63111C7.02443 7.83312 6.85967 7.99689 6.65661 7.99698C6.45347 7.99698 6.28879 7.83317 6.28879 7.63111ZM17.2414 8.19063C17.2414 8.73793 17.0211 9.26217 16.63 9.64839C16.239 10.0345 15.7092 10.2514 15.1573 10.2515H6.08405C5.72562 10.2516 5.38268 10.3922 5.13003 10.6417C4.87748 10.891 4.73572 11.2284 4.73563 11.5799V12.7104C4.7357 13.0619 4.87746 13.3993 5.13003 13.6486C5.38269 13.8981 5.7256 14.0387 6.08405 14.0388H7.37141C7.57445 14.0388 7.73906 14.2027 7.73922 14.4047C7.73922 14.6067 7.57455 14.7705 7.37141 14.7705H6.08405C5.53222 14.7705 5.00238 14.5542 4.61135 14.1681C4.22028 13.782 4.00007 13.2577 4 12.7104V11.5799C4.00009 11.0326 4.22028 10.5083 4.61135 10.1222C4.70087 10.0338 4.79821 9.95496 4.90086 9.88491C4.79838 9.81495 4.70073 9.73664 4.61135 9.64839C4.2203 9.26217 4.00001 8.73793 4 8.19063V7.06087C4 6.51346 4.22017 5.98864 4.61135 5.6024C5.00237 5.21634 5.53225 5.00006 6.08405 5H15.1573C15.7091 5.00006 16.239 5.21634 16.63 5.6024C17.0212 5.98864 17.2414 6.51346 17.2414 7.06087V8.19063Z" fill="#4F4F4F"/>
<path d="M19.5733 10.6016C19.3238 10.4442 19.0038 10.4509 18.7608 10.6181C17.2015 11.6907 15.1756 12.1857 13.1063 12.5639C12.7517 12.6283 12.3796 12.6752 11.9756 12.7297C11.5821 12.7828 11.1629 12.8425 10.7615 12.9326C10.281 13.0403 9.88609 13.1901 9.56608 13.4064C9.23273 13.6317 9.01932 13.9036 8.86852 14.1932C8.73175 14.4558 8.64159 14.7483 8.56823 14.9685C8.48854 15.2077 8.4077 15.4344 8.28016 15.6766C8.06131 16.0923 7.6549 16.4163 7.09984 16.6835L6.85271 16.795L6.76435 16.8393C6.56751 16.9553 6.43458 17.1574 6.40875 17.3874C6.34068 17.9935 6.47059 18.5289 6.7895 18.9587C7.09744 19.3737 7.53007 19.6212 7.94826 19.7684C8.7585 20.0534 9.70729 20.0295 10.3276 19.9384C10.405 19.9327 10.5264 19.9237 10.6286 19.9134C10.6968 19.9065 10.7705 19.8985 10.8283 19.8905C10.8515 19.8874 10.8958 19.8811 10.9396 19.8713C10.9522 19.8684 10.9733 19.8636 10.9978 19.8562C11.0137 19.8515 11.0715 19.8338 11.1379 19.7984C11.163 19.785 11.2164 19.7546 11.2758 19.7026C11.88 19.8003 12.5647 19.7643 13.1868 19.4032C13.2415 19.3714 13.2897 19.332 13.3333 19.2889C14.1107 19.3319 14.9387 19.1785 15.6494 18.5986C15.7109 18.5484 15.762 18.4894 15.8031 18.4249C16.5491 18.2838 17.2715 17.9345 17.8154 17.2187C17.9131 17.0901 17.9617 16.936 17.9626 16.7814C18.099 16.7088 18.23 16.6276 18.352 16.5341L18.3527 16.5334C18.5435 16.3867 18.7513 16.1849 18.9224 15.9568C19.0825 15.7433 19.2716 15.4256 19.3053 15.0557C19.3178 14.9179 19.2902 14.7824 19.2299 14.6626C19.6388 14.2733 19.9444 13.7527 19.9978 13.062C20.018 12.8006 19.896 12.5485 19.6781 12.401C19.6767 12.4 19.6753 12.3991 19.6738 12.3981C19.7239 12.2906 19.7651 12.1724 19.7866 12.0437L19.9044 11.3398C19.9529 11.05 19.8227 10.7591 19.5733 10.6016ZM16.0302 15.1757C15.2508 15.3122 14.3923 15.4092 13.5991 15.3108C13.574 15.3883 13.7048 15.3714 13.7651 15.3837C14.4326 15.5189 15.2306 15.4942 15.9095 15.4623C16.808 15.4204 17.7543 15.3207 18.5725 14.9899C18.5412 15.3343 18.1872 15.7357 17.9023 15.9546C16.7902 16.8067 14.4761 16.5728 13.1121 16.3969L13.7651 16.5963C14.9133 16.7832 16.0765 16.8988 17.2284 16.7771C16.0838 18.2839 13.8425 17.7598 12.1997 17.2752L13.6121 17.8268L15.1832 18.0333C14.0286 18.9755 12.3907 18.491 11.1207 17.9412L12.1947 18.5914L12.8161 18.7715C11.9452 19.277 10.7979 18.9241 9.96335 18.4542C10.0614 18.7862 10.4244 19.0225 10.7895 19.1517C10.8185 19.1642 10.3136 19.2094 10.2371 19.2131C9.1553 19.3763 7.07258 19.2749 7.12714 17.6325L7.13935 17.4688C7.83709 17.1747 8.47963 16.7668 8.85918 16.1433L8.93174 16.0161C9.51766 14.9033 9.25436 14.1311 10.6264 13.7237L10.9231 13.6465C11.6573 13.4817 12.4874 13.42 13.2392 13.2835C15.3124 12.9046 17.4784 12.3895 19.1789 11.2198L19.061 11.9236C18.9792 12.4144 18.1821 12.9371 17.7292 13.1499C16.7427 13.6111 15.4978 13.8777 14.4174 14.0917C14.391 14.1704 14.5218 14.1549 14.5733 14.1524C14.7063 14.1475 14.8758 14.1202 15.0151 14.1067C16.4721 13.9541 17.9718 13.6304 19.2644 13.0055C19.1489 14.4976 17.3729 14.9429 16.0337 15.1779L16.0302 15.1757Z" fill="#4F4F4F"/>
</svg>
